<svg width="24" height="25" viewBox="0 0 24 25" fill="none" xmlns="http://www.w3.org/2000/svg">
<path d="M5.14296 11.4446C5.14296 10.8763 5.36873 10.3312 5.77059 9.92939C6.17245 9.52752 6.7175 9.30176 7.28582 9.30176C7.85414 9.30176 8.39918 9.52752 8.80105 9.92939C9.20291 10.3312 9.42868 10.8763 9.42868 11.4446C9.42868 12.0129 9.20291 12.558 8.80105 12.9598C8.39918 13.3617 7.85414 13.5875 7.28582 13.5875C6.7175 13.5875 6.17245 13.3617 5.77059 12.9598C5.36873 12.558 5.14296 12.0129 5.14296 11.4446ZM7.28582 10.5875C7.05849 10.5875 6.84047 10.6778 6.67973 10.8385C6.51898 10.9993 6.42868 11.2173 6.42868 11.4446C6.42868 11.6719 6.51898 11.89 6.67973 12.0507C6.84047 12.2115 7.05849 12.3018 7.28582 12.3018C7.51315 12.3018 7.73116 12.2115 7.89191 12.0507C8.05266 11.89 8.14296 11.6719 8.14296 11.4446C8.14296 11.2173 8.05266 10.9993 7.89191 10.8385C7.73116 10.6778 7.51315 10.5875 7.28582 10.5875ZM7.28582 15.3018C6.7175 15.3018 6.17245 15.5275 5.77059 15.9294C5.36873 16.3313 5.14296 16.8763 5.14296 17.4446C5.14296 18.0129 5.36873 18.558 5.77059 18.9598C6.17245 19.3617 6.7175 19.5875 7.28582 19.5875C7.85414 19.5875 8.39918 19.3617 8.80105 18.9598C9.20291 18.558 9.42868 18.0129 9.42868 17.4446C9.42868 16.8763 9.20291 16.3313 8.80105 15.9294C8.39918 15.5275 7.85414 15.3018 7.28582 15.3018ZM6.42868 17.4446C6.42868 17.2173 6.51898 16.9993 6.67973 16.8385C6.84047 16.6778 7.05849 16.5875 7.28582 16.5875C7.51315 16.5875 7.73116 16.6778 7.89191 16.8385C8.05266 16.9993 8.14296 17.2173 8.14296 17.4446C8.14296 17.6719 8.05266 17.89 7.89191 18.0507C7.73116 18.2115 7.51315 18.3018 7.28582 18.3018C7.05849 18.3018 6.84047 18.2115 6.67973 18.0507C6.51898 17.89 6.42868 17.6719 6.42868 17.4446ZM11.143 11.2303C11.143 11.0598 11.2107 10.8963 11.3313 10.7758C11.4518 10.6552 11.6153 10.5875 11.7858 10.5875H18.2144C18.3849 10.5875 18.5484 10.6552 18.669 10.7758C18.7895 10.8963 18.8572 11.0598 18.8572 11.2303C18.8572 11.4008 18.7895 11.5643 18.669 11.6849C18.5484 11.8055 18.3849 11.8732 18.2144 11.8732H11.7858C11.6153 11.8732 11.4518 11.8055 11.3313 11.6849C11.2107 11.5643 11.143 11.4008 11.143 11.2303ZM11.7858 16.5875C11.6153 16.5875 11.4518 16.6552 11.3313 16.7758C11.2107 16.8963 11.143 17.0598 11.143 17.2303C11.143 17.4008 11.2107 17.5643 11.3313 17.6849C11.4518 17.8055 11.6153 17.8732 11.7858 17.8732H18.2144C18.3849 17.8732 18.5484 17.8055 18.669 17.6849C18.7895 17.5643 18.8572 17.4008 18.8572 17.2303C18.8572 17.0598 18.7895 16.8963 18.669 16.7758C18.5484 16.6552 18.3849 16.5875 18.2144 16.5875H11.7858ZM5.14296 6.94461C5.14296 6.77412 5.21069 6.61061 5.33125 6.49005C5.45181 6.36949 5.61532 6.30176 5.78582 6.30176H18.2144C18.3849 6.30176 18.5484 6.36949 18.669 6.49005C18.7895 6.61061 18.8572 6.77412 18.8572 6.94461C18.8572 7.11511 18.7895 7.27862 18.669 7.39918C18.5484 7.51974 18.3849 7.58747 18.2144 7.58747H5.78582C5.61532 7.58747 5.45181 7.51974 5.33125 7.39918C5.21069 7.27862 5.14296 7.11511 5.14296 6.94461ZM5.78582 3.30176C4.93334 3.30176 4.11577 3.6404 3.51298 4.2432C2.91018 4.846 2.57153 5.66356 2.57153 6.51604V18.9446C2.57153 19.7971 2.91018 20.6147 3.51298 21.2175C4.11577 21.8203 4.93334 22.1589 5.78582 22.1589H18.2144C19.0669 22.1589 19.8844 21.8203 20.4872 21.2175C21.09 20.6147 21.4287 19.7971 21.4287 18.9446V6.51604C21.4287 5.66356 21.09 4.846 20.4872 4.2432C19.8844 3.6404 19.0669 3.30176 18.2144 3.30176H5.78582ZM3.85725 6.51604C3.85725 6.00455 4.06044 5.51401 4.42211 5.15234C4.78379 4.79066 5.27433 4.58747 5.78582 4.58747H18.2144C18.7259 4.58747 19.2164 4.79066 19.5781 5.15234C19.9398 5.51401 20.143 6.00455 20.143 6.51604V18.9446C20.143 19.4561 19.9398 19.9466 19.5781 20.3083C19.2164 20.67 18.7259 20.8732 18.2144 20.8732H5.78582C5.27433 20.8732 4.78379 20.67 4.42211 20.3083C4.06044 19.9466 3.85725 19.4561 3.85725 18.9446V6.51604Z" fill="white"/>
</svg>
