<svg width="1699" height="329" viewBox="0 0 1699 329" fill="none" xmlns="http://www.w3.org/2000/svg">
<path d="M511.68 118.72C511.68 129.57 513.949 134.65 525.149 140.25L538.45 146.73C552.28 153.56 558.75 161.08 558.75 177.18V189.43C558.75 210.08 547.55 221.28 529.35 221.28C511.15 221.28 499.77 210.25 499.77 189.43V179.28C499.77 177.18 501.69 175.61 503.62 175.61H508C510.1 175.61 511.85 177.19 511.85 179.28V186.63C511.85 202.73 517.97 210.08 529.35 210.08C540.73 210.08 546.85 202.38 546.85 186.63V179.28C546.85 167.03 541.78 161.78 533.2 157.58L519.37 150.75C504.84 143.58 499.77 135.35 499.77 120.83V106.48C499.77 85.1299 511.319 74.45 529.169 74.45C548.419 74.45 558.75 87.2299 558.75 106.48V116.98C558.75 118.9 557 120.65 555.08 120.65H550.359C548.429 120.65 546.68 118.9 546.68 116.98V109.1C546.68 92.9999 540.38 85.65 529.18 85.65C517.98 85.65 511.68 93.3499 511.68 109.1V118.72Z" fill="#242731"/>
<path d="M691.76 208.85C693.69 208.85 695.44 210.6 695.44 212.52V216.37C695.44 218.47 693.69 220.05 691.76 220.05H655.01C653.08 220.05 651.16 218.3 651.16 216.37V79.34C651.16 77.42 653.08 75.6699 655.01 75.6699H691.76C693.69 75.6699 695.44 77.59 695.44 79.52V83.1899C695.44 85.1099 693.86 86.8599 691.76 86.8599H666.73C664.46 86.8599 663.23 88.0899 663.23 90.3599V137.79C663.23 140.07 664.46 141.29 666.73 141.29H691.06C693.16 141.29 694.91 143.04 694.91 144.97V148.64C694.91 150.74 693.16 152.49 691.06 152.49H666.73C664.46 152.49 663.23 153.72 663.23 155.99V205.34C663.23 207.61 664.46 208.84 666.73 208.84H691.76V208.85Z" fill="#242731"/>
<path d="M844.18 126.24C844.18 133.41 842.96 141.64 836.66 147.77L835.43 149.17C834.21 150.22 834.03 151.1 834.03 151.97C834.03 152.84 834.2 153.72 835.43 154.77L836.66 156.17C842.96 162.12 844.18 170.69 844.18 178.05V216.55C844.18 218.47 842.61 220.05 840.68 220.05H835.96C834.04 220.05 832.11 218.47 832.11 216.55V180.5C832.11 167.38 827.73 157.22 814.61 157.22H801.49C799.21 157.22 797.99 158.97 797.99 161.24V216.54C797.99 218.46 796.41 220.04 794.14 220.04H789.76C787.84 220.04 785.91 218.46 785.91 216.54V79.34C785.91 77.42 787.83 75.6699 789.76 75.6699H814.96C834.91 75.6699 844.18 88.79 844.18 107.7V126.25V126.24ZM802.35 86.8599C799.2 86.8599 797.97 87.91 797.97 90.71V142.51C797.97 145.31 798.85 146.36 801.64 146.36H814.59C828.77 146.36 832.09 136.39 832.09 124.48V108.9C832.09 93.85 826.32 86.8499 815.29 86.8499H802.34L802.35 86.8599Z" fill="#242731"/>
<path d="M977.879 208.85C979.809 208.85 981.56 210.6 981.56 212.52V216.37C981.56 218.47 979.809 220.05 977.879 220.05H941.129C939.199 220.05 937.279 218.3 937.279 216.37V79.34C937.279 77.42 939.199 75.6699 941.129 75.6699H977.879C979.809 75.6699 981.56 77.59 981.56 79.52V83.1899C981.56 85.1099 979.979 86.8599 977.879 86.8599H952.85C950.58 86.8599 949.35 88.0899 949.35 90.3599V137.79C949.35 140.07 950.58 141.29 952.85 141.29H977.18C979.28 141.29 981.029 143.04 981.029 144.97V148.64C981.029 150.74 979.28 152.49 977.18 152.49H952.85C950.58 152.49 949.35 153.72 949.35 155.99V205.34C949.35 207.61 950.58 208.84 952.85 208.84H977.879V208.85Z" fill="#242731"/>
<path d="M1071.5 80.5699C1071.5 77.9499 1073.42 75.6699 1076.75 75.6699C1078.5 75.6699 1079.9 76.37 1081.3 77.59L1081.65 77.9399C1082.7 78.9899 1083.4 79.34 1084.62 79.34C1086.02 79.34 1088.65 77.7699 1090.75 77.0699C1093.9 75.8399 1098.1 74.45 1102.47 74.45C1109.82 74.45 1117.7 76.8999 1122.95 82.6699C1127.5 87.5699 1130.65 94.7499 1130.65 106.82V216.55C1130.65 218.47 1129.07 220.05 1126.98 220.05H1122.43C1120.33 220.05 1118.58 218.47 1118.58 216.55V109.62C1118.58 92.8199 1111.93 85.64 1101.25 85.64C1088.12 85.64 1083.57 95.26 1083.57 110.14V216.54C1083.57 218.46 1081.99 220.04 1079.9 220.04H1075.52C1073.6 220.04 1071.49 218.46 1071.49 216.54V80.5599L1071.5 80.5699Z" fill="#242731"/>
<path d="M1225.85 79.34C1225.85 77.24 1227.6 75.6699 1229.7 75.6699H1234.08C1236.35 75.6699 1237.93 77.25 1237.93 79.34V216.37C1237.93 218.47 1236.35 220.05 1234.08 220.05H1229.7C1227.6 220.05 1225.85 218.47 1225.85 216.37V79.34Z" fill="#242731"/>
<path d="M1385.62 75.6699C1387.72 75.6699 1389.29 77.2499 1389.29 79.1699V83.2C1389.29 85.3 1387.71 86.8699 1385.62 86.8699H1367.59C1365.49 86.8699 1363.92 88.2699 1363.92 90.5399V216.54C1363.92 218.46 1362.34 220.04 1359.89 220.04H1355.86C1353.59 220.04 1352.01 218.46 1352.01 216.54V90.5399C1352.01 88.2699 1350.43 86.8699 1348.16 86.8699H1330.31C1328.39 86.8699 1326.46 85.29 1326.46 83.2V79.1699C1326.46 77.2499 1328.39 75.6699 1330.31 75.6699H1385.61H1385.62Z" fill="#242731"/>
<path d="M1499.2 165.97C1499.2 164.39 1498.5 162.82 1496.92 162.12L1494.3 161.07C1481.52 156.17 1475.4 145.85 1475.4 129.57V79.1699C1475.4 77.2499 1477.5 75.6699 1479.43 75.6699H1483.81C1485.91 75.6699 1487.48 77.2499 1487.48 79.1699V127.65C1487.48 136.05 1488.53 142.53 1492.56 146.38C1496.06 149.71 1500.09 151.28 1505.16 151.28C1509.71 151.28 1514.26 149.7 1517.41 146.38C1521.44 142.53 1522.49 136.05 1522.49 127.65V79.1699C1522.49 77.2499 1524.24 75.6699 1526.34 75.6699H1530.89C1532.99 75.6699 1534.56 77.2499 1534.56 79.1699V129.57C1534.56 147.42 1524.76 158.45 1516.18 161.07L1513.9 161.77C1512.32 162.3 1511.1 163.35 1511.1 165.44V216.54C1511.1 218.46 1509.35 220.04 1507.25 220.04H1503.05C1500.78 220.04 1499.2 218.46 1499.2 216.54V165.96V165.97Z" fill="#242731"/>
<path d="M294.109 62.6001L330.049 81.9401L296.859 91.6301L294.109 62.6001Z" fill="#242731" stroke="#9988FF" stroke-width="3" stroke-linejoin="round"/>
<path d="M293.8 59.3501L220.09 104.22L301.35 138.99L293.8 59.3501Z" fill="#242731" stroke="#9988FF" stroke-width="3" stroke-linejoin="round"/>
<path d="M229.62 108.3L310.19 130.85L306.59 149.27L229.62 108.3Z" fill="#242731" stroke="#9988FF" stroke-width="3" stroke-linejoin="round"/>
<path d="M101.02 42.21L316.1 154.22L233.29 242.57L101.02 42.21Z" fill="#242731" stroke="#9988FF" stroke-width="3" stroke-linejoin="round"/>
<path d="M35.8398 62.6L48.0098 68.0301L148.41 112.91L119.74 70.29L110.18 56.0801L35.8398 62.6Z" fill="#242731" stroke="#9988FF" stroke-width="3" stroke-linejoin="round"/>
<path d="M184.3 169.92L145.92 224.81L226.73 232.84L184.3 169.92Z" fill="#242731" stroke="#9988FF" stroke-width="3" stroke-linejoin="round"/>
<path d="M145.92 224.81L251.11 234.15L226.73 261.18L145.92 224.81Z" fill="#242731" stroke="#9988FF" stroke-width="3" stroke-linejoin="round"/>
<path d="M145.92 224.81L226.73 261.18L214.35 264.75L145.92 224.81Z" fill="#242731" stroke="#9988FF" stroke-width="3" stroke-linejoin="round"/>
<path d="M145.92 224.81L136.23 286.93L208.331 262.52L145.92 224.81Z" fill="#242731" stroke="#9988FF" stroke-width="3" stroke-linejoin="round"/>
<path d="M145.59 146.07L113.03 182.06L159.7 167.05L145.59 146.07Z" fill="#242731" stroke="#9988FF" stroke-width="3" stroke-linejoin="round"/>
<path d="M324.7 165.94L307.49 187.79L321.06 182.49L324.7 165.94Z" fill="#242731" stroke="#9988FF" stroke-width="3" stroke-linejoin="round"/>
<path d="M226.73 107.68L303.73 117.11V128.78L226.73 107.68Z" fill="#242731" stroke="#9988FF" stroke-width="3" stroke-linejoin="round"/>
<path d="M283.38 201.38L136.23 94.8101L245.661 229.37L283.38 201.38Z" fill="#242731" stroke="#9988FF" stroke-width="3" stroke-linejoin="round"/>
<path d="M197.43 189.39L145.92 224.81L184.3 169.92L197.43 189.39Z" fill="#242731" stroke="#9988FF" stroke-width="3" stroke-linejoin="round"/>
<path d="M127.179 142.5L42.3496 117.12L111.09 116.48L127.179 142.5Z" fill="#242731" stroke="#9988FF" stroke-width="3" stroke-linejoin="round"/>
<path d="M64.9297 75.6001L113.03 62.6001" stroke="#9988FF" stroke-width="3" stroke-linejoin="round"/>
<path d="M312.9 86.9501L330.05 81.9401L299.16 65.3101L312.9 86.9501Z" fill="#242731" stroke="#9988FF" stroke-width="3" stroke-linejoin="round"/>
</svg>
