<svg width="1699" height="330" viewBox="0 0 1699 330" fill="none" xmlns="http://www.w3.org/2000/svg">
<path d="M1698.38 0.72998H0.169922V329.2H1698.38V0.72998Z" fill="#242731"/>
<path d="M511.68 119.11C511.68 129.96 513.949 135.03 525.149 140.64L538.45 147.11C552.28 153.94 558.75 161.46 558.75 177.56V189.81C558.75 210.46 547.55 221.66 529.35 221.66C511.15 221.66 499.77 210.63 499.77 189.81V179.66C499.77 177.56 501.69 175.99 503.62 175.99H508C510.1 175.99 511.85 177.56 511.85 179.66V187.01C511.85 203.11 517.97 210.46 529.35 210.46C540.73 210.46 546.85 202.76 546.85 187.01V179.66C546.85 167.41 541.78 162.16 533.2 157.96L519.37 151.13C504.84 143.95 499.77 135.73 499.77 121.2V106.85C499.77 85.5 511.319 74.8201 529.169 74.8201C548.419 74.8201 558.75 87.6 558.75 106.85V117.35C558.75 119.27 557 121.02 555.08 121.02H550.359C548.429 121.02 546.68 119.27 546.68 117.35V109.47C546.68 93.37 540.38 86.0201 529.18 86.0201C517.98 86.0201 511.68 93.72 511.68 109.47V119.1V119.11Z" fill="white"/>
<path d="M691.76 209.24C693.69 209.24 695.44 210.99 695.44 212.92V216.77C695.44 218.87 693.69 220.44 691.76 220.44H655.01C653.08 220.44 651.16 218.69 651.16 216.77V79.7401C651.16 77.8201 653.08 76.0701 655.01 76.0701H691.76C693.69 76.0701 695.44 77.99 695.44 79.92V83.5901C695.44 85.5201 693.86 87.2701 691.76 87.2701H666.73C664.46 87.2701 663.23 88.4901 663.23 90.7701V138.2C663.23 140.47 664.46 141.7 666.73 141.7H691.06C693.16 141.7 694.91 143.45 694.91 145.37V149.04C694.91 151.14 693.16 152.89 691.06 152.89H666.73C664.46 152.89 663.23 154.11 663.23 156.39V205.74C663.23 208.02 664.46 209.24 666.73 209.24H691.76Z" fill="white"/>
<path d="M844.18 126.64C844.18 133.82 842.96 142.04 836.66 148.17L835.43 149.57C834.21 150.62 834.03 151.49 834.03 152.37C834.03 153.25 834.2 154.12 835.43 155.17L836.66 156.57C842.96 162.52 844.18 171.1 844.18 178.45V216.95C844.18 218.87 842.61 220.45 840.68 220.45H835.96C834.04 220.45 832.11 218.87 832.11 216.95V180.9C832.11 167.78 827.73 157.62 814.61 157.62H801.49C799.21 157.62 797.99 159.37 797.99 161.65V216.95C797.99 218.87 796.41 220.45 794.14 220.45H789.76C787.84 220.45 785.91 218.87 785.91 216.95V79.7501C785.91 77.8301 787.83 76.0801 789.76 76.0801H814.96C834.91 76.0801 844.18 89.2 844.18 108.11V126.66V126.64ZM802.35 87.2601C799.2 87.2601 797.97 88.31 797.97 91.11V142.91C797.97 145.71 798.85 146.76 801.64 146.76H814.59C828.77 146.76 832.09 136.78 832.09 124.88V109.3C832.09 94.25 826.32 87.2501 815.29 87.2501H802.34L802.35 87.2601Z" fill="white"/>
<path d="M977.879 209.24C979.809 209.24 981.56 210.99 981.56 212.92V216.77C981.56 218.87 979.809 220.44 977.879 220.44H941.129C939.199 220.44 937.279 218.69 937.279 216.77V79.7401C937.279 77.8201 939.199 76.0701 941.129 76.0701H977.879C979.809 76.0701 981.56 77.99 981.56 79.92V83.5901C981.56 85.5201 979.979 87.2701 977.879 87.2701H952.85C950.58 87.2701 949.35 88.4901 949.35 90.7701V138.2C949.35 140.47 950.58 141.7 952.85 141.7H977.18C979.28 141.7 981.029 143.45 981.029 145.37V149.04C981.029 151.14 979.28 152.89 977.18 152.89H952.85C950.58 152.89 949.35 154.11 949.35 156.39V205.74C949.35 208.02 950.58 209.24 952.85 209.24H977.879Z" fill="white"/>
<path d="M1071.5 80.9601C1071.5 78.3401 1073.42 76.0601 1076.75 76.0601C1078.5 76.0601 1079.9 76.76 1081.3 77.98L1081.65 78.3301C1082.7 79.3801 1083.4 79.73 1084.62 79.73C1086.02 79.73 1088.65 78.1501 1090.75 77.4501C1093.9 76.2301 1098.1 74.8301 1102.47 74.8301C1109.82 74.8301 1117.7 77.2801 1122.95 83.0601C1127.5 87.9601 1130.65 95.1401 1130.65 107.21V216.94C1130.65 218.86 1129.07 220.44 1126.98 220.44H1122.43C1120.33 220.44 1118.58 218.86 1118.58 216.94V110.01C1118.58 93.2101 1111.93 86.0301 1101.25 86.0301C1088.12 86.0301 1083.57 95.6501 1083.57 110.53V216.93C1083.57 218.85 1081.99 220.43 1079.9 220.43H1075.52C1073.6 220.43 1071.49 218.85 1071.49 216.93V80.9501L1071.5 80.9601Z" fill="white"/>
<path d="M1225.85 79.7401C1225.85 77.6401 1227.6 76.0701 1229.7 76.0701H1234.08C1236.35 76.0701 1237.93 77.6501 1237.93 79.7401V216.77C1237.93 218.87 1236.35 220.44 1234.08 220.44H1229.7C1227.6 220.44 1225.85 218.86 1225.85 216.77V79.7401Z" fill="white"/>
<path d="M1385.62 76.0601C1387.72 76.0601 1389.29 77.6401 1389.29 79.5601V83.5801C1389.29 85.6801 1387.71 87.2601 1385.62 87.2601H1367.59C1365.49 87.2601 1363.92 88.6601 1363.92 90.9301V216.93C1363.92 218.85 1362.34 220.43 1359.89 220.43H1355.86C1353.59 220.43 1352.01 218.85 1352.01 216.93V90.9301C1352.01 88.6501 1350.43 87.2601 1348.16 87.2601H1330.31C1328.39 87.2601 1326.46 85.6801 1326.46 83.5801V79.5601C1326.46 77.6401 1328.39 76.0601 1330.31 76.0601H1385.61H1385.62Z" fill="white"/>
<path d="M1499.2 166.36C1499.2 164.79 1498.5 163.21 1496.92 162.51L1494.3 161.46C1481.52 156.56 1475.4 146.23 1475.4 129.96V79.5601C1475.4 77.6401 1477.5 76.0601 1479.43 76.0601H1483.81C1485.91 76.0601 1487.48 77.6401 1487.48 79.5601V128.04C1487.48 136.44 1488.53 142.92 1492.56 146.77C1496.06 150.1 1500.09 151.67 1505.16 151.67C1509.71 151.67 1514.26 150.1 1517.41 146.77C1521.44 142.92 1522.49 136.44 1522.49 128.04V79.5601C1522.49 77.6401 1524.24 76.0601 1526.34 76.0601H1530.89C1532.99 76.0601 1534.56 77.6401 1534.56 79.5601V129.96C1534.56 147.81 1524.76 158.84 1516.18 161.46L1513.9 162.16C1512.32 162.68 1511.1 163.73 1511.1 165.83V216.93C1511.1 218.85 1509.35 220.43 1507.25 220.43H1503.05C1500.78 220.43 1499.2 218.85 1499.2 216.93V166.35V166.36Z" fill="white"/>
<path d="M294.109 62.99L330.049 82.34L296.859 92.02L294.109 62.99Z" fill="white" stroke="#9988FF" stroke-width="3" stroke-linejoin="round"/>
<path d="M293.8 59.74L220.09 104.61L301.35 139.38L293.8 59.74Z" fill="white" stroke="#9988FF" stroke-width="3" stroke-linejoin="round"/>
<path d="M229.62 108.69L310.19 131.25L306.59 149.66L229.62 108.69Z" fill="white" stroke="#9988FF" stroke-width="3" stroke-linejoin="round"/>
<path d="M101.02 42.6099L316.1 154.61L233.29 242.97L101.02 42.6099Z" fill="white" stroke="#9988FF" stroke-width="3" stroke-linejoin="round"/>
<path d="M35.8398 62.99L48.0098 68.43L148.41 113.31L119.74 70.68L110.18 56.48L35.8398 62.99Z" fill="white" stroke="#9988FF" stroke-width="3" stroke-linejoin="round"/>
<path d="M184.3 170.31L145.92 225.2L226.73 233.24L184.3 170.31Z" fill="white" stroke="#9988FF" stroke-width="3" stroke-linejoin="round"/>
<path d="M145.92 225.2L251.11 234.55L226.73 261.57L145.92 225.2Z" fill="white" stroke="#9988FF" stroke-width="3" stroke-linejoin="round"/>
<path d="M145.92 225.2L226.73 261.57L214.35 265.15L145.92 225.2Z" fill="white" stroke="#9988FF" stroke-width="3" stroke-linejoin="round"/>
<path d="M145.92 225.2L136.23 287.33L208.331 262.91L145.92 225.2Z" fill="white" stroke="#9988FF" stroke-width="3" stroke-linejoin="round"/>
<path d="M145.59 146.47L113.03 182.46L159.7 167.45L145.59 146.47Z" fill="white" stroke="#9988FF" stroke-width="3" stroke-linejoin="round"/>
<path d="M324.7 166.33L307.49 188.18L321.06 182.89L324.7 166.33Z" fill="white" stroke="#9988FF" stroke-width="3" stroke-linejoin="round"/>
<path d="M226.73 108.07L303.73 117.51V129.18L226.73 108.07Z" fill="white" stroke="#9988FF" stroke-width="3" stroke-linejoin="round"/>
<path d="M283.38 201.78L136.23 95.2L245.661 229.77L283.38 201.78Z" fill="white" stroke="#9988FF" stroke-width="3" stroke-linejoin="round"/>
<path d="M197.43 189.78L145.92 225.2L184.3 170.31L197.43 189.78Z" fill="white" stroke="#9988FF" stroke-width="3" stroke-linejoin="round"/>
<path d="M127.179 142.89L42.3496 117.52L111.09 116.87L127.179 142.89Z" fill="white" stroke="#9988FF" stroke-width="3" stroke-linejoin="round"/>
<path d="M64.9297 75.99L113.03 62.99" stroke="#9988FF" stroke-width="3" stroke-linejoin="round"/>
<path d="M312.9 87.34L330.05 82.34L299.16 65.71L312.9 87.34Z" fill="white" stroke="#9988FF" stroke-width="3" stroke-linejoin="round"/>
</svg>
