<svg width="298" height="249" viewBox="0 0 298 249" fill="none" xmlns="http://www.w3.org/2000/svg">
<path d="M260.23 22.24L296.17 41.59L262.991 51.28L260.23 22.24Z" fill="white" stroke="#9988FF" stroke-width="3" stroke-linejoin="round"/>
<path d="M259.93 19L186.21 63.87L267.48 98.64L259.93 19Z" fill="white" stroke="#9988FF" stroke-width="3" stroke-linejoin="round"/>
<path d="M195.75 67.95L276.31 90.5L272.72 108.92L195.75 67.95Z" fill="white" stroke="#9988FF" stroke-width="3" stroke-linejoin="round"/>
<path d="M67.1504 1.86011L282.221 113.87L199.411 202.22L67.1504 1.86011Z" fill="white" stroke="#9988FF" stroke-width="3" stroke-linejoin="round"/>
<path d="M1.9707 22.24L14.1304 27.68L114.53 72.56L85.8604 29.94L76.3003 15.73L1.9707 22.24Z" fill="white" stroke="#9988FF" stroke-width="3" stroke-linejoin="round"/>
<path d="M150.43 129.57L112.04 184.46L192.85 192.49L150.43 129.57Z" fill="white" stroke="#9988FF" stroke-width="3" stroke-linejoin="round"/>
<path d="M112.04 184.46L217.24 193.8L192.85 220.83L112.04 184.46Z" fill="white" stroke="#9988FF" stroke-width="3" stroke-linejoin="round"/>
<path d="M112.04 184.46L192.85 220.83L180.48 224.4L112.04 184.46Z" fill="white" stroke="#9988FF" stroke-width="3" stroke-linejoin="round"/>
<path d="M112.04 184.46L102.35 246.58L174.459 222.17L112.04 184.46Z" fill="white" stroke="#9988FF" stroke-width="3" stroke-linejoin="round"/>
<path d="M111.72 105.72L79.1602 141.71L125.82 126.7L111.72 105.72Z" fill="white" stroke="#9988FF" stroke-width="3" stroke-linejoin="round"/>
<path d="M290.83 125.59L273.609 147.44L287.189 142.14L290.83 125.59Z" fill="white" stroke="#9988FF" stroke-width="3" stroke-linejoin="round"/>
<path d="M192.85 67.3201L269.859 76.7601V88.4301L192.85 67.3201Z" fill="white" stroke="#9988FF" stroke-width="3" stroke-linejoin="round"/>
<path d="M249.5 161.03L102.35 54.46L211.779 189.02L249.5 161.03Z" fill="white" stroke="#9988FF" stroke-width="3" stroke-linejoin="round"/>
<path d="M163.55 149.03L112.04 184.46L150.43 129.57L163.55 149.03Z" fill="white" stroke="#9988FF" stroke-width="3" stroke-linejoin="round"/>
<path d="M93.3003 102.14L8.4707 76.7699L77.2104 76.1299L93.3003 102.14Z" fill="white" stroke="#9988FF" stroke-width="3" stroke-linejoin="round"/>
<path d="M31.0605 35.25L79.1606 22.24" stroke="#9988FF" stroke-width="3" stroke-linejoin="round"/>
<path d="M279.02 46.6L296.169 41.59L265.279 24.96L279.02 46.6Z" fill="white" stroke="#9988FF" stroke-width="3" stroke-linejoin="round"/>
</svg>
