<svg width="33" height="34" viewBox="0 0 33 34" fill="none" xmlns="http://www.w3.org/2000/svg">
<path fill-rule="evenodd" clip-rule="evenodd" d="M17.2253 5.88923C16.831 5.47382 16.169 5.47382 15.7747 5.88923L15.6903 5.97813L4.38262 18.5079C4.21679 18.6916 4.125 18.9303 4.125 19.1778V28.2903C4.125 29.2661 4.917 30.0581 5.89286 30.0581H11.1964C12.1723 30.0581 12.9643 29.2661 12.9643 28.2903V21.2188C12.9643 20.243 13.7563 19.451 14.7321 19.451H18.2679C19.2437 19.451 20.0357 20.243 20.0357 21.2188V28.2903C20.0357 29.2661 20.8277 30.0581 21.8036 30.0581H27.1071C28.083 30.0581 28.875 29.2661 28.875 28.2903V19.1778C28.875 18.9303 28.7832 18.6916 28.6174 18.5079L17.3097 5.97813L17.2253 5.88923Z" fill="#1E1F20"/>
</svg>
