<svg width="356" height="525" viewBox="0 0 356 525" fill="none" xmlns="http://www.w3.org/2000/svg">
<path d="M251.659 16.3401L276.549 29.7401L253.559 36.4501L251.659 16.3401Z" fill="white" stroke="#9988FF" stroke-width="3" stroke-linejoin="round"/>
<path d="M251.439 14.0901L200.399 45.1601L256.669 69.2401L251.439 14.0901Z" fill="white" stroke="#9988FF" stroke-width="3" stroke-linejoin="round"/>
<path d="M207 47.99L262.79 63.61L260.3 76.36L207 47.99Z" fill="white" stroke="#9988FF" stroke-width="3" stroke-linejoin="round"/>
<path d="M117.939 2.21997L266.88 79.79L209.54 140.98L117.939 2.21997Z" fill="white" stroke="#9988FF" stroke-width="3" stroke-linejoin="round"/>
<path d="M72.8096 16.34L81.2295 20.11L150.76 51.1801L130.899 21.67L124.28 11.8301L72.8096 16.34Z" fill="white" stroke="#9988FF" stroke-width="3" stroke-linejoin="round"/>
<path d="M175.609 90.6599L149.029 128.67L204.989 134.24L175.609 90.6599Z" fill="white" stroke="#9988FF" stroke-width="3" stroke-linejoin="round"/>
<path d="M149.029 128.67L221.879 135.14L204.989 153.86L149.029 128.67Z" fill="white" stroke="#9988FF" stroke-width="3" stroke-linejoin="round"/>
<path d="M149.029 128.67L204.989 153.86L196.429 156.33L149.029 128.67Z" fill="white" stroke="#9988FF" stroke-width="3" stroke-linejoin="round"/>
<path d="M149.029 128.67L142.319 171.69L192.259 154.79L149.029 128.67Z" fill="white" stroke="#9988FF" stroke-width="3" stroke-linejoin="round"/>
<path d="M148.81 74.1501L126.26 99.0702L158.57 88.6802L148.81 74.1501Z" fill="white" stroke="#9988FF" stroke-width="3" stroke-linejoin="round"/>
<path d="M272.84 87.9001L260.92 103.03L270.32 99.3702L272.84 87.9001Z" fill="white" stroke="#9988FF" stroke-width="3" stroke-linejoin="round"/>
<path d="M204.989 47.5601L258.319 54.09V62.1801L204.989 47.5601Z" fill="white" stroke="#9988FF" stroke-width="3" stroke-linejoin="round"/>
<path d="M244.219 112.45L142.319 38.6501L218.099 131.83L244.219 112.45Z" fill="white" stroke="#9988FF" stroke-width="3" stroke-linejoin="round"/>
<path d="M184.699 104.14L149.029 128.67L175.609 90.6599L184.699 104.14Z" fill="white" stroke="#9988FF" stroke-width="3" stroke-linejoin="round"/>
<path d="M136.05 71.6702L77.3096 54.1002L124.909 53.6501L136.05 71.6702Z" fill="white" stroke="#9988FF" stroke-width="3" stroke-linejoin="round"/>
<path d="M92.9492 25.3401L126.259 16.3401" stroke="#9988FF" stroke-width="3" stroke-linejoin="round"/>
<path d="M264.669 33.2L276.55 29.74L255.149 18.22L264.669 33.2Z" fill="white" stroke="#9988FF" stroke-width="3" stroke-linejoin="round"/>
<path d="M4.67944 414.12C4.67944 417.84 5.45956 419.58 9.29956 421.5L13.8596 423.72C18.5996 426.06 20.8196 428.64 20.8196 434.16V438.36C20.8196 445.44 16.9795 449.28 10.7395 449.28C4.4995 449.28 0.599609 445.5 0.599609 438.36V434.88C0.599609 434.16 1.25943 433.62 1.91943 433.62H3.41943C4.13943 433.62 4.7395 434.16 4.7395 434.88V437.4C4.7395 442.92 6.8395 445.44 10.7395 445.44C14.6395 445.44 16.7395 442.8 16.7395 437.4V434.88C16.7395 430.68 14.9996 428.88 12.0596 427.44L7.31958 425.1C2.33958 422.64 0.599609 419.82 0.599609 414.84V409.92C0.599609 402.6 4.55944 398.94 10.6794 398.94C17.2794 398.94 20.8196 403.32 20.8196 409.92V413.52C20.8196 414.18 20.2196 414.78 19.5596 414.78H17.9395C17.2795 414.78 16.6794 414.18 16.6794 413.52V410.82C16.6794 405.3 14.5194 402.78 10.6794 402.78C6.83944 402.78 4.67944 405.42 4.67944 410.82V414.12Z" fill="white"/>
<path d="M66.4199 445.02C67.0799 445.02 67.6799 445.62 67.6799 446.28V447.6C67.6799 448.32 67.0799 448.86 66.4199 448.86H53.8201C53.1601 448.86 52.5 448.26 52.5 447.6V400.62C52.5 399.96 53.1601 399.36 53.8201 399.36H66.4199C67.0799 399.36 67.6799 400.02 67.6799 400.68V401.94C67.6799 402.6 67.1399 403.2 66.4199 403.2H57.8401C57.0601 403.2 56.6401 403.62 56.6401 404.4V420.66C56.6401 421.44 57.0601 421.86 57.8401 421.86H66.1799C66.8999 421.86 67.5 422.46 67.5 423.12V424.38C67.5 425.1 66.8999 425.7 66.1799 425.7H57.8401C57.0601 425.7 56.6401 426.12 56.6401 426.9V443.82C56.6401 444.6 57.0601 445.02 57.8401 445.02H66.4199Z" fill="white"/>
<path d="M118.679 416.7C118.679 419.16 118.259 421.98 116.099 424.08L115.679 424.56C115.259 424.92 115.199 425.22 115.199 425.52C115.199 425.82 115.259 426.12 115.679 426.48L116.099 426.96C118.259 429 118.679 431.94 118.679 434.46V447.66C118.679 448.32 118.139 448.86 117.479 448.86H115.859C115.199 448.86 114.539 448.32 114.539 447.66V435.3C114.539 430.8 113.039 427.32 108.539 427.32H104.039C103.259 427.32 102.839 427.92 102.839 428.7V447.66C102.839 448.32 102.299 448.86 101.519 448.86H100.019C99.3593 448.86 98.6992 448.32 98.6992 447.66V400.62C98.6992 399.96 99.3593 399.36 100.019 399.36H108.659C115.499 399.36 118.679 403.86 118.679 410.34V416.7ZM104.339 403.2C103.259 403.2 102.839 403.56 102.839 404.52V422.28C102.839 423.24 103.139 423.6 104.099 423.6H108.539C113.399 423.6 114.539 420.18 114.539 416.1V410.76C114.539 405.6 112.559 403.2 108.779 403.2H104.339Z" fill="white"/>
<path d="M164.52 445.02C165.18 445.02 165.78 445.62 165.78 446.28V447.6C165.78 448.32 165.18 448.86 164.52 448.86H151.919C151.259 448.86 150.6 448.26 150.6 447.6V400.62C150.6 399.96 151.259 399.36 151.919 399.36H164.52C165.18 399.36 165.78 400.02 165.78 400.68V401.94C165.78 402.6 165.24 403.2 164.52 403.2H155.939C155.159 403.2 154.74 403.62 154.74 404.4V420.66C154.74 421.44 155.159 421.86 155.939 421.86H164.28C165 421.86 165.6 422.46 165.6 423.12V424.38C165.6 425.1 165 425.7 164.28 425.7H155.939C155.159 425.7 154.74 426.12 154.74 426.9V443.82C154.74 444.6 155.159 445.02 155.939 445.02H164.52Z" fill="white"/>
<path d="M196.619 401.04C196.619 400.14 197.279 399.36 198.419 399.36C199.019 399.36 199.499 399.6 199.979 400.02L200.099 400.14C200.459 400.5 200.699 400.62 201.119 400.62C201.599 400.62 202.499 400.08 203.219 399.84C204.299 399.42 205.739 398.94 207.239 398.94C209.759 398.94 212.459 399.78 214.259 401.76C215.819 403.44 216.899 405.9 216.899 410.04V447.66C216.899 448.32 216.359 448.86 215.639 448.86H214.079C213.359 448.86 212.759 448.32 212.759 447.66V411C212.759 405.24 210.479 402.78 206.819 402.78C202.319 402.78 200.759 406.08 200.759 411.18V447.66C200.759 448.32 200.219 448.86 199.499 448.86H197.999C197.339 448.86 196.619 448.32 196.619 447.66V401.04Z" fill="white"/>
<path d="M249.539 400.62C249.539 399.9 250.139 399.36 250.859 399.36H252.359C253.139 399.36 253.679 399.9 253.679 400.62V447.6C253.679 448.32 253.139 448.86 252.359 448.86H250.859C250.139 448.86 249.539 448.32 249.539 447.6V400.62Z" fill="white"/>
<path d="M304.319 399.36C305.039 399.36 305.579 399.9 305.579 400.56V401.94C305.579 402.66 305.039 403.2 304.319 403.2H298.139C297.419 403.2 296.879 403.68 296.879 404.46V447.66C296.879 448.32 296.339 448.86 295.499 448.86H294.119C293.339 448.86 292.799 448.32 292.799 447.66V404.46C292.799 403.68 292.259 403.2 291.479 403.2H285.359C284.699 403.2 284.039 402.66 284.039 401.94V400.56C284.039 399.9 284.699 399.36 285.359 399.36H304.319Z" fill="white"/>
<path d="M343.26 430.32C343.26 429.78 343.019 429.24 342.479 429L341.58 428.64C337.2 426.96 335.1 423.42 335.1 417.84V400.56C335.1 399.9 335.819 399.36 336.479 399.36H337.979C338.699 399.36 339.24 399.9 339.24 400.56V417.18C339.24 420.06 339.599 422.28 340.979 423.6C342.179 424.74 343.56 425.28 345.3 425.28C346.86 425.28 348.42 424.74 349.5 423.6C350.88 422.28 351.24 420.06 351.24 417.18V400.56C351.24 399.9 351.84 399.36 352.56 399.36H354.12C354.84 399.36 355.38 399.9 355.38 400.56V417.84C355.38 423.96 352.02 427.74 349.08 428.64L348.3 428.88C347.76 429.06 347.34 429.42 347.34 430.14V447.66C347.34 448.32 346.74 448.86 346.02 448.86H344.58C343.8 448.86 343.26 448.32 343.26 447.66V430.32Z" fill="white"/>
<path d="M55.2393 522.73H315.669" stroke="#9988FF" stroke-width="3" stroke-miterlimit="10"/>
<path d="M55.2393 340.04H315.669" stroke="#9988FF" stroke-width="3" stroke-miterlimit="10"/>
</svg>
