<svg width="33" height="33" viewBox="0 0 33 33" fill="none" xmlns="http://www.w3.org/2000/svg">
<g opacity="0.3" filter="url(#filter0_b_225_19)">
<path fill-rule="evenodd" clip-rule="evenodd" d="M25.6208 21.8625C26.5827 21.8625 27.3625 22.61 27.3625 23.5321V26.0366C27.3625 26.9587 26.5827 27.7062 25.6208 27.7062H13.4292C12.4673 27.7062 11.6875 26.9587 11.6875 26.0366V23.5321C11.6875 22.61 12.4673 21.8625 13.4292 21.8625H25.6208ZM7.04688 21.8625C8.66058 21.8625 9.96875 23.1707 9.96875 24.7844C9.96875 26.3981 8.66058 27.7062 7.04688 27.7062C5.43317 27.7062 4.125 26.3981 4.125 24.7844C4.125 23.1707 5.43317 21.8625 7.04688 21.8625ZM25.6208 13.6812C26.5827 13.6812 27.3625 14.4288 27.3625 15.3509V17.8554C27.3625 18.7775 26.5827 19.525 25.6208 19.525H13.4292C12.4673 19.525 11.6875 18.7775 11.6875 17.8554V15.3509C11.6875 14.4288 12.4673 13.6812 13.4292 13.6812H25.6208ZM7.04688 13.6812C8.66058 13.6812 9.96875 14.9894 9.96875 16.6031C9.96875 18.2168 8.66058 19.525 7.04688 19.525C5.43317 19.525 4.125 18.2168 4.125 16.6031C4.125 14.9894 5.43317 13.6812 7.04688 13.6812ZM7.04688 5.5C8.66058 5.5 9.96875 6.80817 9.96875 8.42188C9.96875 10.0356 8.66058 11.3438 7.04688 11.3438C5.43317 11.3438 4.125 10.0356 4.125 8.42188C4.125 6.80817 5.43317 5.5 7.04688 5.5ZM25.6208 5.5C26.5827 5.5 27.3625 6.24752 27.3625 7.16964V9.67411C27.3625 10.5962 26.5827 11.3438 25.6208 11.3438H13.4292C12.4673 11.3438 11.6875 10.5962 11.6875 9.67411V7.16964C11.6875 6.24752 12.4673 5.5 13.4292 5.5H25.6208Z" fill="#1E1F20"/>
</g>
<defs>
<filter id="filter0_b_225_19" x="-4" y="-4" width="41" height="41" filterUnits="userSpaceOnUse" color-interpolation-filters="sRGB">
<feFlood flood-opacity="0" result="BackgroundImageFix"/>
<feGaussianBlur in="BackgroundImageFix" stdDeviation="2"/>
<feComposite in2="SourceAlpha" operator="in" result="effect1_backgroundBlur_225_19"/>
<feBlend mode="normal" in="SourceGraphic" in2="effect1_backgroundBlur_225_19" result="shape"/>
</filter>
</defs>
</svg>
