<svg width="24" height="24" viewBox="0 0 24 24" fill="none" xmlns="http://www.w3.org/2000/svg">
<path d="M21.6224 3.87735C21.0504 3.33174 20.2903 3.02734 19.4999 3.02734C18.7094 3.02734 17.9493 3.33174 17.3774 3.87735L0.254883 20.9998H7.19238C8.18503 20.9996 9.13709 20.6059 9.83988 19.9048L21.6224 8.12234C21.9013 7.84373 22.1226 7.51286 22.2736 7.14867C22.4245 6.78447 22.5022 6.39409 22.5022 5.99985C22.5022 5.6056 22.4245 5.21522 22.2736 4.85102C22.1226 4.48683 21.9013 4.15596 21.6224 3.87735ZM9.21738 14.1598L10.7849 12.5923L12.9074 14.7148L11.3399 16.2823L9.21738 14.1598ZM8.78238 18.8398C8.36083 19.2619 7.78892 19.4993 7.19238 19.4998H3.87738L8.15988 15.2173L10.2824 17.3398L8.78238 18.8398ZM20.5574 7.05734L13.9649 13.6573L11.8424 11.5348L18.4424 4.94235C18.7234 4.66297 19.1036 4.50616 19.4999 4.50616C19.8962 4.50616 20.2763 4.66297 20.5574 4.94235C20.8368 5.22339 20.9936 5.60357 20.9936 5.99985C20.9936 6.39612 20.8368 6.7763 20.5574 7.05734Z" fill="white"/>
</svg>
