<svg width="71" height="71" viewBox="0 0 71 71" fill="none" xmlns="http://www.w3.org/2000/svg">
<circle cx="35.5" cy="35.5" r="35.5" fill="#242731"/>
<path d="M60.2109 20.3962L67.9637 24.5703L60.8064 26.6606L60.2109 20.3962Z" fill="white" stroke="#9988FF" stroke-width="0.5" stroke-linejoin="round"/>
<path d="M60.1446 19.6974L44.2422 29.3765L61.7732 36.8768L60.1446 19.6974Z" fill="white" stroke="#9988FF" stroke-width="0.5" stroke-linejoin="round"/>
<path d="M46.3008 30.2566L63.6787 35.1209L62.9043 39.0944L46.3008 30.2566Z" fill="white" stroke="#9988FF" stroke-width="0.5" stroke-linejoin="round"/>
<path d="M18.5605 16L64.9541 40.1621L47.0909 59.2204L18.5605 16Z" fill="white" stroke="#9988FF" stroke-width="0.5" stroke-linejoin="round"/>
<path d="M4.5 20.3964L7.123 21.5698L28.7806 31.2511L22.5961 22.0574L20.5339 18.9921L4.5 20.3964Z" fill="white" stroke="#9988FF" stroke-width="0.5" stroke-linejoin="round"/>
<path d="M36.5244 43.5488L28.2432 55.3893L45.675 57.1215L36.5244 43.5488Z" fill="white" stroke="#9988FF" stroke-width="0.5" stroke-linejoin="round"/>
<path d="M28.2432 55.3893L50.9363 57.404L45.675 63.2348L28.2432 55.3893Z" fill="white" stroke="#9988FF" stroke-width="0.5" stroke-linejoin="round"/>
<path d="M28.2432 55.3893L45.675 63.2348L43.0066 64.0049L28.2432 55.3893Z" fill="white" stroke="#9988FF" stroke-width="0.5" stroke-linejoin="round"/>
<path d="M28.2436 55.3893L26.1533 68.7894L41.7084 63.5238L28.2436 55.3893Z" fill="white" stroke="#9988FF" stroke-width="0.5" stroke-linejoin="round"/>
<path d="M28.175 38.4039L21.1514 46.1675L31.2165 42.9296L28.175 38.4039Z" fill="white" stroke="#9988FF" stroke-width="0.5" stroke-linejoin="round"/>
<path d="M66.8103 42.6903L63.0957 47.4036L66.0251 46.2604L66.8103 42.6903Z" fill="white" stroke="#9988FF" stroke-width="0.5" stroke-linejoin="round"/>
<path d="M45.6748 30.1206L62.2869 32.1569V34.6743L45.6748 30.1206Z" fill="white" stroke="#9988FF" stroke-width="0.5" stroke-linejoin="round"/>
<path d="M57.8955 50.3351L26.1533 27.3466L49.7588 56.373L57.8955 50.3351Z" fill="white" stroke="#9988FF" stroke-width="0.5" stroke-linejoin="round"/>
<path d="M39.3545 47.7466L28.2432 55.3893L36.5244 43.5488L39.3545 47.7466Z" fill="white" stroke="#9988FF" stroke-width="0.5" stroke-linejoin="round"/>
<path d="M24.2012 37.6317L5.90234 32.1591L20.7304 32.021L24.2012 37.6317Z" fill="white" stroke="#9988FF" stroke-width="0.5" stroke-linejoin="round"/>
<path d="M10.7754 23.2027L21.1512 20.3962" stroke="#9988FF" stroke-width="0.5" stroke-linejoin="round"/>
<path d="M64.2628 25.6511L67.9622 24.5703L61.2988 20.983L64.2628 25.6511Z" fill="white" stroke="#9988FF" stroke-width="0.5" stroke-linejoin="round"/>
</svg>
