<svg width="18" height="15" viewBox="0 0 18 15" fill="none" xmlns="http://www.w3.org/2000/svg">
<path fill-rule="evenodd" clip-rule="evenodd" d="M11.5278 0.655193C12.2838 1.65493 13.4648 2.24246 14.7182 2.24246H15.2293C16.4253 2.24246 17.3949 3.09719 17.3949 4.15156V12.4243C17.3949 13.4786 16.4253 14.3334 15.2293 14.3334H2.23567C1.03964 14.3334 0.0700684 13.4786 0.0700684 12.4243V4.15156C0.0700684 3.09719 1.03964 2.24246 2.23567 2.24246H2.74676C4.00019 2.24246 5.18114 1.65493 5.93718 0.655193L5.96625 0.616747C6.10013 0.439711 6.32552 0.333374 6.56688 0.333374H10.8981C11.1395 0.333374 11.3648 0.439711 11.4987 0.616747L11.5278 0.655193ZM4.40128 8.33337C4.40128 10.5425 6.34043 12.3334 8.73249 12.3334C11.1245 12.3334 13.0637 10.5425 13.0637 8.33337C13.0637 6.12424 11.1245 4.33337 8.73249 4.33337C6.34043 4.33337 4.40128 6.12424 4.40128 8.33337ZM11.62 8.33337C11.62 9.80613 10.3272 11 8.73249 11C7.13778 11 5.84502 9.80613 5.84502 8.33337C5.84502 6.86061 7.13778 5.66671 8.73249 5.66671C10.3272 5.66671 11.62 6.86061 11.62 8.33337Z" fill="white"/>
</svg>
