<svg width="50" height="50" viewBox="0 0 50 50" fill="none" xmlns="http://www.w3.org/2000/svg">
<path d="M31.25 17.1875V13.2812C31.25 12.2452 30.8384 11.2517 30.1059 10.5191C29.3733 9.78655 28.3798 9.375 27.3438 9.375H8.59375C7.55775 9.375 6.56418 9.78655 5.83161 10.5191C5.09905 11.2517 4.6875 12.2452 4.6875 13.2812V36.7188C4.6875 37.7548 5.09905 38.7483 5.83161 39.4809C6.56418 40.2134 7.55775 40.625 8.59375 40.625H27.3438C28.3798 40.625 29.3733 40.2134 30.1059 39.4809C30.8384 38.7483 31.25 37.7548 31.25 36.7188V32.8125M37.5 17.1875L45.3125 25M45.3125 25L37.5 32.8125M45.3125 25H18.6523" stroke="white" stroke-width="3.125" stroke-linecap="round" stroke-linejoin="round"/>
</svg>
